  0
SECTION
  2
ENTITIES
  0
3DFACE
 10
 5.000000000e+0
 20
 0.000000000e+0
 30
 0.000000000e+0
 11
 4.045085430e+0
 21
 0.000000000e+0
 31
-2.938926458e+0
 12
 3.535533905e+0
 22
 3.535534382e+0
 32
 0.000000000e+0
 13
 3.535533905e+0
 23
 3.535534382e+0
 33
 0.000000000e+0
  0
3DFACE
 10
 0.000000000e+0
 20
 5.000000477e+0
 30
 0.000000000e+0
 11
 3.535533905e+0
 21
 3.535534382e+0
 31
 0.000000000e+0
 12
 1.092540145e+0
 22
 3.535534382e+0
 32
-3.362492561e+0
 13
 1.092540145e+0
 23
 3.535534382e+0
 33
-3.362492561e+0
  0
3DFACE
 10
 1.545085073e+0
 20
 0.000000000e+0
 30
-4.755282879e+0
 11
 4.045085430e+0
 21
 0.000000000e+0
 31
-2.938926458e+0
 12
 1.092540145e+0
 22
 3.535534382e+0
 32
-3.362492561e+0
 13
 1.092540145e+0
 23
 3.535534382e+0
 33
-3.362492561e+0
  0
3DFACE
 10
 4.045085430e+0
 20
 0.000000000e+0
 30
-2.938926458e+0
 11
 3.535533905e+0
 21
 3.535534382e+0
 31
 0.000000000e+0
 12
 1.092540145e+0
 22
 3.535534382e+0
 32
-3.362492561e+0
 13
 1.092540145e+0
 23
 3.535534382e+0
 33
-3.362492561e+0
  0
3DFACE
 10
 1.545085073e+0
 20
 0.000000000e+0
 30
-4.755282879e+0
 11
-1.545085192e+0
 21
 0.000000000e+0
 31
-4.755282879e+0
 12
 1.092540145e+0
 22
 3.535534382e+0
 32
-3.362492561e+0
 13
 1.092540145e+0
 23
 3.535534382e+0
 33
-3.362492561e+0
  0
3DFACE
 10
 0.000000000e+0
 20
 5.000000477e+0
 30
 0.000000000e+0
 11
 1.092540145e+0
 21
 3.535534382e+0
 31
-3.362492561e+0
 12
-2.860307455e+0
 22
 3.535534382e+0
 32
-2.078134537e+0
 13
-2.860307455e+0
 23
 3.535534382e+0
 33
-2.078134537e+0
  0
3DFACE
 10
-4.045085430e+0
 20
 0.000000000e+0
 30
-2.938926458e+0
 11
-1.545085192e+0
 21
 0.000000000e+0
 31
-4.755282879e+0
 12
-2.860307455e+0
 22
 3.535534382e+0
 32
-2.078134537e+0
 13
-2.860307455e+0
 23
 3.535534382e+0
 33
-2.078134537e+0
  0
3DFACE
 10
-1.545085192e+0
 20
 0.000000000e+0
 30
-4.755282879e+0
 11
 1.092540145e+0
 21
 3.535534382e+0
 31
-3.362492561e+0
 12
-2.860307455e+0
 22
 3.535534382e+0
 32
-2.078134537e+0
 13
-2.860307455e+0
 23
 3.535534382e+0
 33
-2.078134537e+0
  0
3DFACE
 10
-4.045085430e+0
 20
 0.000000000e+0
 30
-2.938926458e+0
 11
-5.000000477e+0
 21
 0.000000000e+0
 31
 1.201479449e-7
 12
-2.860307455e+0
 22
 3.535534382e+0
 32
-2.078134537e+0
 13
-2.860307455e+0
 23
 3.535534382e+0
 33
-2.078134537e+0
  0
3DFACE
 10
 0.000000000e+0
 20
 5.000000477e+0
 30
 0.000000000e+0
 11
-2.860307455e+0
 21
 3.535534382e+0
 31
-2.078134537e+0
 12
-2.860306978e+0
 22
 3.535534382e+0
 32
 2.078135014e+0
 13
-2.860306978e+0
 23
 3.535534382e+0
 33
 2.078135014e+0
  0
3DFACE
 10
-4.045085430e+0
 20
 0.000000000e+0
 30
 2.938926697e+0
 11
-5.000000477e+0
 21
 0.000000000e+0
 31
 1.201479449e-7
 12
-2.860306978e+0
 22
 3.535534382e+0
 32
 2.078135014e+0
 13
-2.860306978e+0
 23
 3.535534382e+0
 33
 2.078135014e+0
  0
3DFACE
 10
-5.000000477e+0
 20
 0.000000000e+0
 30
 1.201479449e-7
 11
-2.860307455e+0
 21
 3.535534382e+0
 31
-2.078134537e+0
 12
-2.860306978e+0
 22
 3.535534382e+0
 32
 2.078135014e+0
 13
-2.860306978e+0
 23
 3.535534382e+0
 33
 2.078135014e+0
  0
3DFACE
 10
-4.045085430e+0
 20
 0.000000000e+0
 30
 2.938926697e+0
 11
-1.545084953e+0
 21
 0.000000000e+0
 31
 4.755283356e+0
 12
-2.860306978e+0
 22
 3.535534382e+0
 32
 2.078135014e+0
 13
-2.860306978e+0
 23
 3.535534382e+0
 33
 2.078135014e+0
  0
3DFACE
 10
 0.000000000e+0
 20
 5.000000477e+0
 30
 0.000000000e+0
 11
-2.860306978e+0
 21
 3.535534382e+0
 31
 2.078135014e+0
 12
 1.092540383e+0
 22
 3.535534382e+0
 32
 3.362493038e+0
 13
 1.092540383e+0
 23
 3.535534382e+0
 33
 3.362493038e+0
  0
3DFACE
 10
 1.545085430e+0
 20
 0.000000000e+0
 30
 4.755283356e+0
 11
-1.545084953e+0
 21
 0.000000000e+0
 31
 4.755283356e+0
 12
 1.092540383e+0
 22
 3.535534382e+0
 32
 3.362493038e+0
 13
 1.092540383e+0
 23
 3.535534382e+0
 33
 3.362493038e+0
  0
3DFACE
 10
-1.545084953e+0
 20
 0.000000000e+0
 30
 4.755283356e+0
 11
-2.860306978e+0
 21
 3.535534382e+0
 31
 2.078135014e+0
 12
 1.092540383e+0
 22
 3.535534382e+0
 32
 3.362493038e+0
 13
 1.092540383e+0
 23
 3.535534382e+0
 33
 3.362493038e+0
  0
3DFACE
 10
 5.000000000e+0
 20
 0.000000000e+0
 30
 0.000000000e+0
 11
 4.045085430e+0
 21
 0.000000000e+0
 31
 2.938926697e+0
 12
 3.535533905e+0
 22
 3.535534382e+0
 32
 0.000000000e+0
 13
 3.535533905e+0
 23
 3.535534382e+0
 33
 0.000000000e+0
  0
3DFACE
 10
 0.000000000e+0
 20
 5.000000477e+0
 30
 0.000000000e+0
 11
 3.535533905e+0
 21
 3.535534382e+0
 31
 0.000000000e+0
 12
 1.092540383e+0
 22
 3.535534382e+0
 32
 3.362493038e+0
 13
 1.092540383e+0
 23
 3.535534382e+0
 33
 3.362493038e+0
  0
3DFACE
 10
 1.545085430e+0
 20
 0.000000000e+0
 30
 4.755283356e+0
 11
 4.045085430e+0
 21
 0.000000000e+0
 31
 2.938926697e+0
 12
 1.092540383e+0
 22
 3.535534382e+0
 32
 3.362493038e+0
 13
 1.092540383e+0
 23
 3.535534382e+0
 33
 3.362493038e+0
  0
3DFACE
 10
 4.045085430e+0
 20
 0.000000000e+0
 30
 2.938926697e+0
 11
 3.535533905e+0
 21
 3.535534382e+0
 31
 0.000000000e+0
 12
 1.092540383e+0
 22
 3.535534382e+0
 32
 3.362493038e+0
 13
 1.092540383e+0
 23
 3.535534382e+0
 33
 3.362493038e+0
  0
3DFACE
 10
 5.000000000e+0
 20
 0.000000000e+0
 30
 0.000000000e+0
 11
 4.045085430e+0
 21
 0.000000000e+0
 31
-2.938926458e+0
 12
 2.500000000e+0
 22
 0.000000000e+0
 32
 0.000000000e+0
 13
 2.500000000e+0
 23
 0.000000000e+0
 33
 0.000000000e+0
  0
3DFACE
 10
 0.000000000e+0
 20
 0.000000000e+0
 30
 0.000000000e+0
 11
 2.500000000e+0
 21
 0.000000000e+0
 31
 0.000000000e+0
 12
 7.725425363e-1
 22
 0.000000000e+0
 32
-2.377641439e+0
 13
 7.725425363e-1
 23
 0.000000000e+0
 33
-2.377641439e+0
  0
3DFACE
 10
 1.545085073e+0
 20
 0.000000000e+0
 30
-4.755282879e+0
 11
 4.045085430e+0
 21
 0.000000000e+0
 31
-2.938926458e+0
 12
 7.725425363e-1
 22
 0.000000000e+0
 32
-2.377641439e+0
 13
 7.725425363e-1
 23
 0.000000000e+0
 33
-2.377641439e+0
  0
3DFACE
 10
 4.045085430e+0
 20
 0.000000000e+0
 30
-2.938926458e+0
 11
 2.500000000e+0
 21
 0.000000000e+0
 31
 0.000000000e+0
 12
 7.725425363e-1
 22
 0.000000000e+0
 32
-2.377641439e+0
 13
 7.725425363e-1
 23
 0.000000000e+0
 33
-2.377641439e+0
  0
3DFACE
 10
 1.545085073e+0
 20
 0.000000000e+0
 30
-4.755282879e+0
 11
-1.545085192e+0
 21
 0.000000000e+0
 31
-4.755282879e+0
 12
 7.725425363e-1
 22
 0.000000000e+0
 32
-2.377641439e+0
 13
 7.725425363e-1
 23
 0.000000000e+0
 33
-2.377641439e+0
  0
3DFACE
 10
 0.000000000e+0
 20
 0.000000000e+0
 30
 0.000000000e+0
 11
 7.725425363e-1
 21
 0.000000000e+0
 31
-2.377641439e+0
 12
-2.022542715e+0
 22
 0.000000000e+0
 32
-1.469463229e+0
 13
-2.022542715e+0
 23
 0.000000000e+0
 33
-1.469463229e+0
  0
3DFACE
 10
-4.045085430e+0
 20
 0.000000000e+0
 30
-2.938926458e+0
 11
-1.545085192e+0
 21
 0.000000000e+0
 31
-4.755282879e+0
 12
-2.022542715e+0
 22
 0.000000000e+0
 32
-1.469463229e+0
 13
-2.022542715e+0
 23
 0.000000000e+0
 33
-1.469463229e+0
  0
3DFACE
 10
-1.545085192e+0
 20
 0.000000000e+0
 30
-4.755282879e+0
 11
 7.725425363e-1
 21
 0.000000000e+0
 31
-2.377641439e+0
 12
-2.022542715e+0
 22
 0.000000000e+0
 32
-1.469463229e+0
 13
-2.022542715e+0
 23
 0.000000000e+0
 33
-1.469463229e+0
  0
3DFACE
 10
-4.045085430e+0
 20
 0.000000000e+0
 30
-2.938926458e+0
 11
-5.000000477e+0
 21
 0.000000000e+0
 31
 1.201479449e-7
 12
-2.022542715e+0
 22
 0.000000000e+0
 32
-1.469463229e+0
 13
-2.022542715e+0
 23
 0.000000000e+0
 33
-1.469463229e+0
  0
3DFACE
 10
 0.000000000e+0
 20
 0.000000000e+0
 30
 0.000000000e+0
 11
-2.022542715e+0
 21
 0.000000000e+0
 31
-1.469463229e+0
 12
-2.022542715e+0
 22
 0.000000000e+0
 32
 1.469463468e+0
 13
-2.022542715e+0
 23
 0.000000000e+0
 33
 1.469463468e+0
  0
3DFACE
 10
-4.045085430e+0
 20
 0.000000000e+0
 30
 2.938926697e+0
 11
-5.000000477e+0
 21
 0.000000000e+0
 31
 1.201479449e-7
 12
-2.022542715e+0
 22
 0.000000000e+0
 32
 1.469463468e+0
 13
-2.022542715e+0
 23
 0.000000000e+0
 33
 1.469463468e+0
  0
3DFACE
 10
-5.000000477e+0
 20
 0.000000000e+0
 30
 1.201479449e-7
 11
-2.022542715e+0
 21
 0.000000000e+0
 31
-1.469463229e+0
 12
-2.022542715e+0
 22
 0.000000000e+0
 32
 1.469463468e+0
 13
-2.022542715e+0
 23
 0.000000000e+0
 33
 1.469463468e+0
  0
3DFACE
 10
-4.045085430e+0
 20
 0.000000000e+0
 30
 2.938926697e+0
 11
-1.545084953e+0
 21
 0.000000000e+0
 31
 4.755283356e+0
 12
-2.022542715e+0
 22
 0.000000000e+0
 32
 1.469463468e+0
 13
-2.022542715e+0
 23
 0.000000000e+0
 33
 1.469463468e+0
  0
3DFACE
 10
 0.000000000e+0
 20
 0.000000000e+0
 30
 0.000000000e+0
 11
-2.022542715e+0
 21
 0.000000000e+0
 31
 1.469463468e+0
 12
 7.725427747e-1
 22
 0.000000000e+0
 32
 2.377641916e+0
 13
 7.725427747e-1
 23
 0.000000000e+0
 33
 2.377641916e+0
  0
3DFACE
 10
 1.545085430e+0
 20
 0.000000000e+0
 30
 4.755283356e+0
 11
-1.545084953e+0
 21
 0.000000000e+0
 31
 4.755283356e+0
 12
 7.725427747e-1
 22
 0.000000000e+0
 32
 2.377641916e+0
 13
 7.725427747e-1
 23
 0.000000000e+0
 33
 2.377641916e+0
  0
3DFACE
 10
-1.545084953e+0
 20
 0.000000000e+0
 30
 4.755283356e+0
 11
-2.022542715e+0
 21
 0.000000000e+0
 31
 1.469463468e+0
 12
 7.725427747e-1
 22
 0.000000000e+0
 32
 2.377641916e+0
 13
 7.725427747e-1
 23
 0.000000000e+0
 33
 2.377641916e+0
  0
3DFACE
 10
 5.000000000e+0
 20
 0.000000000e+0
 30
 0.000000000e+0
 11
 4.045085430e+0
 21
 0.000000000e+0
 31
 2.938926697e+0
 12
 2.500000000e+0
 22
 0.000000000e+0
 32
 0.000000000e+0
 13
 2.500000000e+0
 23
 0.000000000e+0
 33
 0.000000000e+0
  0
3DFACE
 10
 0.000000000e+0
 20
 0.000000000e+0
 30
 0.000000000e+0
 11
 2.500000000e+0
 21
 0.000000000e+0
 31
 0.000000000e+0
 12
 7.725427747e-1
 22
 0.000000000e+0
 32
 2.377641916e+0
 13
 7.725427747e-1
 23
 0.000000000e+0
 33
 2.377641916e+0
  0
3DFACE
 10
 1.545085430e+0
 20
 0.000000000e+0
 30
 4.755283356e+0
 11
 4.045085430e+0
 21
 0.000000000e+0
 31
 2.938926697e+0
 12
 7.725427747e-1
 22
 0.000000000e+0
 32
 2.377641916e+0
 13
 7.725427747e-1
 23
 0.000000000e+0
 33
 2.377641916e+0
  0
3DFACE
 10
 4.045085430e+0
 20
 0.000000000e+0
 30
 2.938926697e+0
 11
 2.500000000e+0
 21
 0.000000000e+0
 31
 0.000000000e+0
 12
 7.725427747e-1
 22
 0.000000000e+0
 32
 2.377641916e+0
 13
 7.725427747e-1
 23
 0.000000000e+0
 33
 2.377641916e+0
  0
ENDSEC
  0
EOF
