  0
SECTION
  2
ENTITIES
  0
3DFACE
 10
 2.500000000e+0
 20
 0.000000000e+0
 30
 0.000000000e+0
 11
 2.022542715e+0
 21
 0.000000000e+0
 31
-1.469463229e+0
 12
 1.767766953e+0
 22
 1.767767191e+0
 32
 0.000000000e+0
 13
 1.767766953e+0
 23
 1.767767191e+0
 33
 0.000000000e+0
  0
3DFACE
 10
 0.000000000e+0
 20
 2.500000238e+0
 30
 0.000000000e+0
 11
 1.767766953e+0
 21
 1.767767191e+0
 31
 0.000000000e+0
 12
 5.462700725e-1
 22
 1.767767191e+0
 32
-1.681246281e+0
 13
 5.462700725e-1
 23
 1.767767191e+0
 33
-1.681246281e+0
  0
3DFACE
 10
 7.725425363e-1
 20
 0.000000000e+0
 30
-2.377641439e+0
 11
 2.022542715e+0
 21
 0.000000000e+0
 31
-1.469463229e+0
 12
 5.462700725e-1
 22
 1.767767191e+0
 32
-1.681246281e+0
 13
 5.462700725e-1
 23
 1.767767191e+0
 33
-1.681246281e+0
  0
3DFACE
 10
 2.022542715e+0
 20
 0.000000000e+0
 30
-1.469463229e+0
 11
 1.767766953e+0
 21
 1.767767191e+0
 31
 0.000000000e+0
 12
 5.462700725e-1
 22
 1.767767191e+0
 32
-1.681246281e+0
 13
 5.462700725e-1
 23
 1.767767191e+0
 33
-1.681246281e+0
  0
3DFACE
 10
 7.725425363e-1
 20
 0.000000000e+0
 30
-2.377641439e+0
 11
-7.725425959e-1
 21
 0.000000000e+0
 31
-2.377641439e+0
 12
 5.462700725e-1
 22
 1.767767191e+0
 32
-1.681246281e+0
 13
 5.462700725e-1
 23
 1.767767191e+0
 33
-1.681246281e+0
  0
3DFACE
 10
 0.000000000e+0
 20
 2.500000238e+0
 30
 0.000000000e+0
 11
 5.462700725e-1
 21
 1.767767191e+0
 31
-1.681246281e+0
 12
-1.430153728e+0
 22
 1.767767191e+0
 32
-1.039067268e+0
 13
-1.430153728e+0
 23
 1.767767191e+0
 33
-1.039067268e+0
  0
3DFACE
 10
-2.022542715e+0
 20
 0.000000000e+0
 30
-1.469463229e+0
 11
-7.725425959e-1
 21
 0.000000000e+0
 31
-2.377641439e+0
 12
-1.430153728e+0
 22
 1.767767191e+0
 32
-1.039067268e+0
 13
-1.430153728e+0
 23
 1.767767191e+0
 33
-1.039067268e+0
  0
3DFACE
 10
-7.725425959e-1
 20
 0.000000000e+0
 30
-2.377641439e+0
 11
 5.462700725e-1
 21
 1.767767191e+0
 31
-1.681246281e+0
 12
-1.430153728e+0
 22
 1.767767191e+0
 32
-1.039067268e+0
 13
-1.430153728e+0
 23
 1.767767191e+0
 33
-1.039067268e+0
  0
3DFACE
 10
-2.022542715e+0
 20
 0.000000000e+0
 30
-1.469463229e+0
 11
-2.500000238e+0
 21
 0.000000000e+0
 31
 6.007397246e-8
 12
-1.430153728e+0
 22
 1.767767191e+0
 32
-1.039067268e+0
 13
-1.430153728e+0
 23
 1.767767191e+0
 33
-1.039067268e+0
  0
3DFACE
 10
 0.000000000e+0
 20
 2.500000238e+0
 30
 0.000000000e+0
 11
-1.430153728e+0
 21
 1.767767191e+0
 31
-1.039067268e+0
 12
-1.430153489e+0
 22
 1.767767191e+0
 32
 1.039067507e+0
 13
-1.430153489e+0
 23
 1.767767191e+0
 33
 1.039067507e+0
  0
3DFACE
 10
-2.022542715e+0
 20
 0.000000000e+0
 30
 1.469463348e+0
 11
-2.500000238e+0
 21
 0.000000000e+0
 31
 6.007397246e-8
 12
-1.430153489e+0
 22
 1.767767191e+0
 32
 1.039067507e+0
 13
-1.430153489e+0
 23
 1.767767191e+0
 33
 1.039067507e+0
  0
3DFACE
 10
-2.500000238e+0
 20
 0.000000000e+0
 30
 6.007397246e-8
 11
-1.430153728e+0
 21
 1.767767191e+0
 31
-1.039067268e+0
 12
-1.430153489e+0
 22
 1.767767191e+0
 32
 1.039067507e+0
 13
-1.430153489e+0
 23
 1.767767191e+0
 33
 1.039067507e+0
  0
3DFACE
 10
-2.022542715e+0
 20
 0.000000000e+0
 30
 1.469463348e+0
 11
-7.725424767e-1
 21
 0.000000000e+0
 31
 2.377641678e+0
 12
-1.430153489e+0
 22
 1.767767191e+0
 32
 1.039067507e+0
 13
-1.430153489e+0
 23
 1.767767191e+0
 33
 1.039067507e+0
  0
3DFACE
 10
 0.000000000e+0
 20
 2.500000238e+0
 30
 0.000000000e+0
 11
-1.430153489e+0
 21
 1.767767191e+0
 31
 1.039067507e+0
 12
 5.462701917e-1
 22
 1.767767191e+0
 32
 1.681246519e+0
 13
 5.462701917e-1
 23
 1.767767191e+0
 33
 1.681246519e+0
  0
3DFACE
 10
 7.725427151e-1
 20
 0.000000000e+0
 30
 2.377641678e+0
 11
-7.725424767e-1
 21
 0.000000000e+0
 31
 2.377641678e+0
 12
 5.462701917e-1
 22
 1.767767191e+0
 32
 1.681246519e+0
 13
 5.462701917e-1
 23
 1.767767191e+0
 33
 1.681246519e+0
  0
3DFACE
 10
-7.725424767e-1
 20
 0.000000000e+0
 30
 2.377641678e+0
 11
-1.430153489e+0
 21
 1.767767191e+0
 31
 1.039067507e+0
 12
 5.462701917e-1
 22
 1.767767191e+0
 32
 1.681246519e+0
 13
 5.462701917e-1
 23
 1.767767191e+0
 33
 1.681246519e+0
  0
3DFACE
 10
 2.500000000e+0
 20
 0.000000000e+0
 30
 0.000000000e+0
 11
 2.022542715e+0
 21
 0.000000000e+0
 31
 1.469463348e+0
 12
 1.767766953e+0
 22
 1.767767191e+0
 32
 0.000000000e+0
 13
 1.767766953e+0
 23
 1.767767191e+0
 33
 0.000000000e+0
  0
3DFACE
 10
 0.000000000e+0
 20
 2.500000238e+0
 30
 0.000000000e+0
 11
 1.767766953e+0
 21
 1.767767191e+0
 31
 0.000000000e+0
 12
 5.462701917e-1
 22
 1.767767191e+0
 32
 1.681246519e+0
 13
 5.462701917e-1
 23
 1.767767191e+0
 33
 1.681246519e+0
  0
3DFACE
 10
 7.725427151e-1
 20
 0.000000000e+0
 30
 2.377641678e+0
 11
 2.022542715e+0
 21
 0.000000000e+0
 31
 1.469463348e+0
 12
 5.462701917e-1
 22
 1.767767191e+0
 32
 1.681246519e+0
 13
 5.462701917e-1
 23
 1.767767191e+0
 33
 1.681246519e+0
  0
3DFACE
 10
 2.022542715e+0
 20
 0.000000000e+0
 30
 1.469463348e+0
 11
 1.767766953e+0
 21
 1.767767191e+0
 31
 0.000000000e+0
 12
 5.462701917e-1
 22
 1.767767191e+0
 32
 1.681246519e+0
 13
 5.462701917e-1
 23
 1.767767191e+0
 33
 1.681246519e+0
  0
3DFACE
 10
 2.500000000e+0
 20
 0.000000000e+0
 30
 0.000000000e+0
 11
 2.022542715e+0
 21
 0.000000000e+0
 31
-1.469463229e+0
 12
 1.767766953e+0
 22
-1.767767191e+0
 32
 0.000000000e+0
 13
 1.767766953e+0
 23
-1.767767191e+0
 33
 0.000000000e+0
  0
3DFACE
 10
 0.000000000e+0
 20
-2.500000238e+0
 30
 0.000000000e+0
 11
 1.767766953e+0
 21
-1.767767191e+0
 31
 0.000000000e+0
 12
 5.462700725e-1
 22
-1.767767191e+0
 32
-1.681246281e+0
 13
 5.462700725e-1
 23
-1.767767191e+0
 33
-1.681246281e+0
  0
3DFACE
 10
 7.725425363e-1
 20
 0.000000000e+0
 30
-2.377641439e+0
 11
 2.022542715e+0
 21
 0.000000000e+0
 31
-1.469463229e+0
 12
 5.462700725e-1
 22
-1.767767191e+0
 32
-1.681246281e+0
 13
 5.462700725e-1
 23
-1.767767191e+0
 33
-1.681246281e+0
  0
3DFACE
 10
 2.022542715e+0
 20
 0.000000000e+0
 30
-1.469463229e+0
 11
 1.767766953e+0
 21
-1.767767191e+0
 31
 0.000000000e+0
 12
 5.462700725e-1
 22
-1.767767191e+0
 32
-1.681246281e+0
 13
 5.462700725e-1
 23
-1.767767191e+0
 33
-1.681246281e+0
  0
3DFACE
 10
 7.725425363e-1
 20
 0.000000000e+0
 30
-2.377641439e+0
 11
-7.725425959e-1
 21
 0.000000000e+0
 31
-2.377641439e+0
 12
 5.462700725e-1
 22
-1.767767191e+0
 32
-1.681246281e+0
 13
 5.462700725e-1
 23
-1.767767191e+0
 33
-1.681246281e+0
  0
3DFACE
 10
 0.000000000e+0
 20
-2.500000238e+0
 30
 0.000000000e+0
 11
 5.462700725e-1
 21
-1.767767191e+0
 31
-1.681246281e+0
 12
-1.430153728e+0
 22
-1.767767191e+0
 32
-1.039067268e+0
 13
-1.430153728e+0
 23
-1.767767191e+0
 33
-1.039067268e+0
  0
3DFACE
 10
-2.022542715e+0
 20
 0.000000000e+0
 30
-1.469463229e+0
 11
-7.725425959e-1
 21
 0.000000000e+0
 31
-2.377641439e+0
 12
-1.430153728e+0
 22
-1.767767191e+0
 32
-1.039067268e+0
 13
-1.430153728e+0
 23
-1.767767191e+0
 33
-1.039067268e+0
  0
3DFACE
 10
-7.725425959e-1
 20
 0.000000000e+0
 30
-2.377641439e+0
 11
 5.462700725e-1
 21
-1.767767191e+0
 31
-1.681246281e+0
 12
-1.430153728e+0
 22
-1.767767191e+0
 32
-1.039067268e+0
 13
-1.430153728e+0
 23
-1.767767191e+0
 33
-1.039067268e+0
  0
3DFACE
 10
-2.022542715e+0
 20
 0.000000000e+0
 30
-1.469463229e+0
 11
-2.500000238e+0
 21
 0.000000000e+0
 31
 6.007397246e-8
 12
-1.430153728e+0
 22
-1.767767191e+0
 32
-1.039067268e+0
 13
-1.430153728e+0
 23
-1.767767191e+0
 33
-1.039067268e+0
  0
3DFACE
 10
 0.000000000e+0
 20
-2.500000238e+0
 30
 0.000000000e+0
 11
-1.430153728e+0
 21
-1.767767191e+0
 31
-1.039067268e+0
 12
-1.430153489e+0
 22
-1.767767191e+0
 32
 1.039067507e+0
 13
-1.430153489e+0
 23
-1.767767191e+0
 33
 1.039067507e+0
  0
3DFACE
 10
-2.022542715e+0
 20
 0.000000000e+0
 30
 1.469463348e+0
 11
-2.500000238e+0
 21
 0.000000000e+0
 31
 6.007397246e-8
 12
-1.430153489e+0
 22
-1.767767191e+0
 32
 1.039067507e+0
 13
-1.430153489e+0
 23
-1.767767191e+0
 33
 1.039067507e+0
  0
3DFACE
 10
-2.500000238e+0
 20
 0.000000000e+0
 30
 6.007397246e-8
 11
-1.430153728e+0
 21
-1.767767191e+0
 31
-1.039067268e+0
 12
-1.430153489e+0
 22
-1.767767191e+0
 32
 1.039067507e+0
 13
-1.430153489e+0
 23
-1.767767191e+0
 33
 1.039067507e+0
  0
3DFACE
 10
-2.022542715e+0
 20
 0.000000000e+0
 30
 1.469463348e+0
 11
-7.725424767e-1
 21
 0.000000000e+0
 31
 2.377641678e+0
 12
-1.430153489e+0
 22
-1.767767191e+0
 32
 1.039067507e+0
 13
-1.430153489e+0
 23
-1.767767191e+0
 33
 1.039067507e+0
  0
3DFACE
 10
 0.000000000e+0
 20
-2.500000238e+0
 30
 0.000000000e+0
 11
-1.430153489e+0
 21
-1.767767191e+0
 31
 1.039067507e+0
 12
 5.462701917e-1
 22
-1.767767191e+0
 32
 1.681246519e+0
 13
 5.462701917e-1
 23
-1.767767191e+0
 33
 1.681246519e+0
  0
3DFACE
 10
 7.725427151e-1
 20
 0.000000000e+0
 30
 2.377641678e+0
 11
-7.725424767e-1
 21
 0.000000000e+0
 31
 2.377641678e+0
 12
 5.462701917e-1
 22
-1.767767191e+0
 32
 1.681246519e+0
 13
 5.462701917e-1
 23
-1.767767191e+0
 33
 1.681246519e+0
  0
3DFACE
 10
-7.725424767e-1
 20
 0.000000000e+0
 30
 2.377641678e+0
 11
-1.430153489e+0
 21
-1.767767191e+0
 31
 1.039067507e+0
 12
 5.462701917e-1
 22
-1.767767191e+0
 32
 1.681246519e+0
 13
 5.462701917e-1
 23
-1.767767191e+0
 33
 1.681246519e+0
  0
3DFACE
 10
 2.500000000e+0
 20
 0.000000000e+0
 30
 0.000000000e+0
 11
 2.022542715e+0
 21
 0.000000000e+0
 31
 1.469463348e+0
 12
 1.767766953e+0
 22
-1.767767191e+0
 32
 0.000000000e+0
 13
 1.767766953e+0
 23
-1.767767191e+0
 33
 0.000000000e+0
  0
3DFACE
 10
 0.000000000e+0
 20
-2.500000238e+0
 30
 0.000000000e+0
 11
 1.767766953e+0
 21
-1.767767191e+0
 31
 0.000000000e+0
 12
 5.462701917e-1
 22
-1.767767191e+0
 32
 1.681246519e+0
 13
 5.462701917e-1
 23
-1.767767191e+0
 33
 1.681246519e+0
  0
3DFACE
 10
 7.725427151e-1
 20
 0.000000000e+0
 30
 2.377641678e+0
 11
 2.022542715e+0
 21
 0.000000000e+0
 31
 1.469463348e+0
 12
 5.462701917e-1
 22
-1.767767191e+0
 32
 1.681246519e+0
 13
 5.462701917e-1
 23
-1.767767191e+0
 33
 1.681246519e+0
  0
3DFACE
 10
 2.022542715e+0
 20
 0.000000000e+0
 30
 1.469463348e+0
 11
 1.767766953e+0
 21
-1.767767191e+0
 31
 0.000000000e+0
 12
 5.462701917e-1
 22
-1.767767191e+0
 32
 1.681246519e+0
 13
 5.462701917e-1
 23
-1.767767191e+0
 33
 1.681246519e+0
  0
ENDSEC
  0
EOF
