  0
SECTION
  2
ENTITIES
  0
3DFACE
 10
-1.439468503e+0
 20
-5.351870060e-1
 30
 0.000000000e+0
 11
-1.017857790e+0
 21
 4.826709330e-1
 31
 0.000000000e+0
 12
-1.017857790e+0
 22
 4.043716192e-1
 32
 3.936370611e-1
 13
-1.017857790e+0
 23
 4.043716192e-1
 33
 3.936370611e-1
  0
3DFACE
 10
 6.292116694e-8
 20
 9.042814970e-1
 30
 0.000000000e+0
 11
-1.017857790e+0
 21
 4.826709330e-1
 31
 0.000000000e+0
 12
 6.292116694e-8
 22
 8.763861060e-1
 32
 2.832266092e-1
 13
 6.292116694e-8
 23
 8.763861060e-1
 33
 2.832266092e-1
  0
3DFACE
 10
 6.292116694e-8
 20
 7.937719226e-1
 30
 5.555689931e-1
 11
-1.017857790e+0
 21
 4.043716192e-1
 31
 3.936370611e-1
 12
 6.292116694e-8
 22
 8.763861060e-1
 32
 2.832266092e-1
 13
 6.292116694e-8
 23
 8.763861060e-1
 33
 2.832266092e-1
  0
3DFACE
 10
-1.017857790e+0
 20
 4.826709330e-1
 30
 0.000000000e+0
 11
-1.017857790e+0
 21
 4.043716192e-1
 31
 3.936370611e-1
 12
 6.292116694e-8
 22
 8.763861060e-1
 32
 2.832266092e-1
 13
 6.292116694e-8
 23
 8.763861060e-1
 33
 2.832266092e-1
  0
3DFACE
 10
-1.439468503e+0
 20
-5.351870060e-1
 30
 0.000000000e+0
 11
-1.017857790e+0
 21
 4.043716192e-1
 31
 3.936370611e-1
 12
-1.017857790e+0
 22
 1.813941002e-1
 32
 7.273464799e-1
 13
-1.017857790e+0
 23
 1.813941002e-1
 33
 7.273464799e-1
  0
3DFACE
 10
 6.292116694e-8
 20
 4.790673554e-1
 30
 1.026557565e+0
 11
-1.017857790e+0
 21
 1.813941002e-1
 31
 7.273464799e-1
 12
 6.292116694e-8
 22
 6.596137881e-1
 32
 8.065611720e-1
 13
 6.292116694e-8
 23
 6.596137881e-1
 33
 8.065611720e-1
  0
3DFACE
 10
 6.292116694e-8
 20
 7.937719226e-1
 30
 5.555689931e-1
 11
-1.017857790e+0
 21
 4.043716192e-1
 31
 3.936370611e-1
 12
 6.292116694e-8
 22
 6.596137881e-1
 32
 8.065611720e-1
 13
 6.292116694e-8
 23
 6.596137881e-1
 33
 8.065611720e-1
  0
3DFACE
 10
-1.017857790e+0
 20
 4.043716192e-1
 30
 3.936370611e-1
 11
-1.017857790e+0
 21
 1.813941002e-1
 31
 7.273464799e-1
 12
 6.292116694e-8
 22
 6.596137881e-1
 32
 8.065611720e-1
 13
 6.292116694e-8
 23
 6.596137881e-1
 33
 8.065611720e-1
  0
3DFACE
 10
 1.439468503e+0
 20
-5.351870060e-1
 30
 0.000000000e+0
 11
 1.017858028e+0
 21
 4.826709032e-1
 31
 0.000000000e+0
 12
 1.017858028e+0
 22
 4.043716192e-1
 32
 3.936370611e-1
 13
 1.017858028e+0
 23
 4.043716192e-1
 33
 3.936370611e-1
  0
3DFACE
 10
 6.292116694e-8
 20
 7.937719226e-1
 30
 5.555689931e-1
 11
 1.017858028e+0
 21
 4.043716192e-1
 31
 3.936370611e-1
 12
 6.292116694e-8
 22
 8.763861060e-1
 32
 2.832266092e-1
 13
 6.292116694e-8
 23
 8.763861060e-1
 33
 2.832266092e-1
  0
3DFACE
 10
 6.292116694e-8
 20
 9.042814970e-1
 30
 0.000000000e+0
 11
 1.017858028e+0
 21
 4.826709032e-1
 31
 0.000000000e+0
 12
 6.292116694e-8
 22
 8.763861060e-1
 32
 2.832266092e-1
 13
 6.292116694e-8
 23
 8.763861060e-1
 33
 2.832266092e-1
  0
3DFACE
 10
 1.017858028e+0
 20
 4.826709032e-1
 30
 0.000000000e+0
 11
 1.017858028e+0
 21
 4.043716192e-1
 31
 3.936370611e-1
 12
 6.292116694e-8
 22
 8.763861060e-1
 32
 2.832266092e-1
 13
 6.292116694e-8
 23
 8.763861060e-1
 33
 2.832266092e-1
  0
3DFACE
 10
 1.439468503e+0
 20
-5.351870060e-1
 30
 0.000000000e+0
 11
 1.017858028e+0
 21
 4.043716192e-1
 31
 3.936370611e-1
 12
 1.017858028e+0
 22
 1.813941002e-1
 32
 7.273464799e-1
 13
 1.017858028e+0
 23
 1.813941002e-1
 33
 7.273464799e-1
  0
3DFACE
 10
 6.292116694e-8
 20
 4.790673554e-1
 30
 1.026557565e+0
 11
 1.017858028e+0
 21
 1.813941002e-1
 31
 7.273464799e-1
 12
 6.292116694e-8
 22
 6.596137881e-1
 32
 8.065611720e-1
 13
 6.292116694e-8
 23
 6.596137881e-1
 33
 8.065611720e-1
  0
3DFACE
 10
 6.292116694e-8
 20
 7.937719226e-1
 30
 5.555689931e-1
 11
 1.017858028e+0
 21
 4.043716192e-1
 31
 3.936370611e-1
 12
 6.292116694e-8
 22
 6.596137881e-1
 32
 8.065611720e-1
 13
 6.292116694e-8
 23
 6.596137881e-1
 33
 8.065611720e-1
  0
3DFACE
 10
 1.017858028e+0
 20
 4.043716192e-1
 30
 3.936370611e-1
 11
 1.017858028e+0
 21
 1.813941002e-1
 31
 7.273464799e-1
 12
 6.292116694e-8
 22
 6.596137881e-1
 32
 8.065611720e-1
 13
 6.292116694e-8
 23
 6.596137881e-1
 33
 8.065611720e-1
  0
3DFACE
 10
-1.439468503e+0
 20
-5.351870060e-1
 30
 0.000000000e+0
 11
-1.017857790e+0
 21
 1.813941002e-1
 31
 7.273464799e-1
 12
-1.017857790e+0
 22
-1.523153186e-1
 32
 9.503239393e-1
 13
-1.017857790e+0
 23
-1.523153186e-1
 33
 9.503239393e-1
  0
3DFACE
 10
 6.292116694e-8
 20
 8.078627288e-3
 30
 1.341262102e+0
 11
-1.017857790e+0
 21
-1.523153186e-1
 31
 9.503239393e-1
 12
 6.292116694e-8
 22
 2.590708137e-1
 32
 1.207104087e+0
 13
 6.292116694e-8
 23
 2.590708137e-1
 33
 1.207104087e+0
  0
3DFACE
 10
 6.292116694e-8
 20
 4.790673554e-1
 30
 1.026557565e+0
 11
-1.017857790e+0
 21
 1.813941002e-1
 31
 7.273464799e-1
 12
 6.292116694e-8
 22
 2.590708137e-1
 32
 1.207104087e+0
 13
 6.292116694e-8
 23
 2.590708137e-1
 33
 1.207104087e+0
  0
3DFACE
 10
-1.017857790e+0
 20
 1.813941002e-1
 30
 7.273464799e-1
 11
-1.017857790e+0
 21
-1.523153186e-1
 31
 9.503239393e-1
 12
 6.292116694e-8
 22
 2.590708137e-1
 32
 1.207104087e+0
 13
 6.292116694e-8
 23
 2.590708137e-1
 33
 1.207104087e+0
  0
3DFACE
 10
 1.439468503e+0
 20
-5.351870060e-1
 30
 0.000000000e+0
 11
 1.017858028e+0
 21
 1.813941002e-1
 31
 7.273464799e-1
 12
 1.017858028e+0
 22
-1.523153186e-1
 32
 9.503239393e-1
 13
 1.017858028e+0
 23
-1.523153186e-1
 33
 9.503239393e-1
  0
3DFACE
 10
 6.292116694e-8
 20
 8.078627288e-3
 30
 1.341262102e+0
 11
 1.017858028e+0
 21
-1.523153186e-1
 31
 9.503239393e-1
 12
 6.292116694e-8
 22
 2.590708137e-1
 32
 1.207104087e+0
 13
 6.292116694e-8
 23
 2.590708137e-1
 33
 1.207104087e+0
  0
3DFACE
 10
 6.292116694e-8
 20
 4.790673554e-1
 30
 1.026557565e+0
 11
 1.017858028e+0
 21
 1.813941002e-1
 31
 7.273464799e-1
 12
 6.292116694e-8
 22
 2.590708137e-1
 32
 1.207104087e+0
 13
 6.292116694e-8
 23
 2.590708137e-1
 33
 1.207104087e+0
  0
3DFACE
 10
 1.017858028e+0
 20
 1.813941002e-1
 30
 7.273464799e-1
 11
 1.017858028e+0
 21
-1.523153186e-1
 31
 9.503239393e-1
 12
 6.292116694e-8
 22
 2.590708137e-1
 32
 1.207104087e+0
 13
 6.292116694e-8
 23
 2.590708137e-1
 33
 1.207104087e+0
  0
3DFACE
 10
-1.439468503e+0
 20
-5.351870060e-1
 30
 0.000000000e+0
 11
-1.017857790e+0
 21
-1.523153186e-1
 31
 9.503239393e-1
 12
-1.017857790e+0
 22
-5.459523797e-1
 32
 1.028623104e+0
 13
-1.017857790e+0
 23
-5.459523797e-1
 33
 1.028623104e+0
  0
3DFACE
 10
 6.292116694e-8
 20
-5.474903584e-1
 30
 1.451771498e+0
 11
-1.017857790e+0
 21
-5.459523797e-1
 31
 1.028623104e+0
 12
 6.292116694e-8
 22
-2.642637193e-1
 32
 1.423876166e+0
 13
 6.292116694e-8
 23
-2.642637193e-1
 33
 1.423876166e+0
  0
3DFACE
 10
 6.292116694e-8
 20
 8.078627288e-3
 30
 1.341262102e+0
 11
-1.017857790e+0
 21
-1.523153186e-1
 31
 9.503239393e-1
 12
 6.292116694e-8
 22
-2.642637193e-1
 32
 1.423876166e+0
 13
 6.292116694e-8
 23
-2.642637193e-1
 33
 1.423876166e+0
  0
3DFACE
 10
-1.017857790e+0
 20
-1.523153186e-1
 30
 9.503239393e-1
 11
-1.017857790e+0
 21
-5.459523797e-1
 31
 1.028623104e+0
 12
 6.292116694e-8
 22
-2.642637193e-1
 32
 1.423876166e+0
 13
 6.292116694e-8
 23
-2.642637193e-1
 33
 1.423876166e+0
  0
3DFACE
 10
 1.439468503e+0
 20
-5.351870060e-1
 30
 0.000000000e+0
 11
 1.017858028e+0
 21
-1.523153186e-1
 31
 9.503239393e-1
 12
 1.017858028e+0
 22
-5.459523797e-1
 32
 1.028623104e+0
 13
 1.017858028e+0
 23
-5.459523797e-1
 33
 1.028623104e+0
  0
3DFACE
 10
 6.292116694e-8
 20
-5.474903584e-1
 30
 1.451771498e+0
 11
 1.017858028e+0
 21
-5.459523797e-1
 31
 1.028623104e+0
 12
 6.292116694e-8
 22
-2.642637193e-1
 32
 1.423876166e+0
 13
 6.292116694e-8
 23
-2.642637193e-1
 33
 1.423876166e+0
  0
3DFACE
 10
 6.292116694e-8
 20
 8.078627288e-3
 30
 1.341262102e+0
 11
 1.017858028e+0
 21
-1.523153186e-1
 31
 9.503239393e-1
 12
 6.292116694e-8
 22
-2.642637193e-1
 32
 1.423876166e+0
 13
 6.292116694e-8
 23
-2.642637193e-1
 33
 1.423876166e+0
  0
3DFACE
 10
 1.017858028e+0
 20
-1.523153186e-1
 30
 9.503239393e-1
 11
 1.017858028e+0
 21
-5.459523797e-1
 31
 1.028623104e+0
 12
 6.292116694e-8
 22
-2.642637193e-1
 32
 1.423876166e+0
 13
 6.292116694e-8
 23
-2.642637193e-1
 33
 1.423876166e+0
  0
ENDSEC
  0
EOF
